<?xml version="1.0" encoding="utf-8"?>
<!-- Generator: Adobe Illustrator 21.0.0, SVG Export Plug-In . SVG Version: 6.00 Build 0)  -->
<svg version="1.1" id="Layer_1" xmlns="http://www.w3.org/2000/svg" xmlns:xlink="http://www.w3.org/1999/xlink" x="0px" y="0px"
	 viewBox="0 0 512 512" style="enable-background:new 0 0 512 512;" xml:space="preserve">
<style type="text/css">
	.st0{fill:#71CCE0;}
	.st1{fill:#DFDFDF;}
	.st2{fill:#4A555F;}
	.st3{fill:#FFD452;}
	.st4{fill:#F58E6F;}
	.st5{fill:#FFFFFF;}
	.st6{fill:none;}
</style>
<g>
	<g>
		<g>
			<polygon class="st2" points="9.07,504.44 9.07,0 1.511,0 1.511,512 507.843,512 507.843,504.44 			"/>
		</g>
	</g>
	<g>
		<g>
			<g>
				<path class="st2" d="M59.296,292.705v158.798h45.386V292.705H59.296z M97.123,443.944H66.855V300.265h30.267V443.944z"/>
			</g>
		</g>
	</g>
	<g>
		<g>
			<rect x="75.674" y="309.083" class="st3" width="12.63" height="126.041"/>
		</g>
	</g>
	<g>
		<g>
			<g>
				<path class="st2" d="M142.516,228.236v223.268h45.386V228.236H142.516z M180.343,443.944h-30.268V235.795h30.268V443.944z"/>
			</g>
		</g>
	</g>
	<g>
		<g>
			<rect x="158.895" y="244.614" class="st3" width="12.63" height="190.51"/>
		</g>
	</g>
	<g>
		<g>
			<g>
				<path class="st2" d="M225.737,154.065v297.439h45.388V154.065H225.737z M263.565,443.944h-30.269v-282.32h30.269V443.944z"/>
			</g>
		</g>
	</g>
	<g>
		<g>
			<rect x="242.115" y="170.444" class="st3" width="12.63" height="264.681"/>
		</g>
	</g>
	<g>
		<g>
			<g>
				<path class="st2" d="M308.958,244.031v207.472h45.387V244.031H308.958z M346.786,443.944h-30.269V251.591h30.269V443.944z"/>
			</g>
		</g>
	</g>
	<g>
		<g>
			<rect x="325.336" y="260.409" class="st3" width="12.63" height="174.715"/>
		</g>
	</g>
	<g>
		<g>
			<g>
				<path class="st2" d="M398.729,244.031v207.472h45.388V244.031H398.729z M436.557,443.944h-30.269V251.591h30.269V443.944z"/>
			</g>
		</g>
	</g>
	<g>
		<g>
			<rect x="415.107" y="260.409" class="st3" width="12.63" height="174.715"/>
		</g>
	</g>
	<g>
		<g>
			<polygon class="st2" points="300.296,244.031 280.755,154.065 216.113,154.065 200.611,228.236 129.213,228.236 114.972,292.705 
				40.379,292.705 40.379,300.265 121.044,300.265 135.284,235.795 206.753,235.795 222.255,161.624 274.662,161.624 
				294.203,251.591 504.895,251.591 504.895,244.031 			"/>
		</g>
	</g>
	<g>
		<g>
			<polygon class="st2" points="486.457,225.875 481.364,231.458 499.3,247.823 481.35,264.353 486.471,269.914 510.489,247.799 			
				"/>
		</g>
	</g>
	<g>
		<g>
			<polygon class="st2" points="396.99,129.187 391.896,134.77 409.833,151.135 391.883,167.663 397.004,173.224 421.022,151.108 
							"/>
		</g>
	</g>
	<g>
		<g>
			<polygon class="st2" points="458.551,58.265 453.457,63.848 471.394,80.213 453.444,96.741 458.564,102.302 482.583,80.187 			
				"/>
		</g>
	</g>
	<g>
		<g>
			<polygon class="st2" points="348.985,76.51 311.157,114.815 161,114.815 139.727,76.51 33.543,76.51 33.543,84.07 135.278,84.07 
				156.551,122.375 314.317,122.375 352.145,84.07 477.312,84.07 477.312,76.51 			"/>
		</g>
	</g>
	<g>
		<g>
			<polygon class="st2" points="314.855,148.267 273.82,81.265 193.084,81.265 124.083,186.287 33.543,186.287 33.543,193.847 
				128.16,193.847 197.161,88.825 269.585,88.825 310.62,155.827 415.427,155.827 415.427,148.267 			"/>
		</g>
	</g>
</g>
</svg>
