<?xml version="1.0" encoding="utf-8"?>
<!-- Generator: Adobe Illustrator 21.0.0, SVG Export Plug-In . SVG Version: 6.00 Build 0)  -->
<svg version="1.1" id="Layer_1" xmlns="http://www.w3.org/2000/svg" xmlns:xlink="http://www.w3.org/1999/xlink" x="0px" y="0px"
	 viewBox="0 0 512 512" style="enable-background:new 0 0 512 512;" xml:space="preserve">
<style type="text/css">
	.st0{fill:#71CCE0;}
	.st1{fill:#DFDFDF;}
	.st2{fill:#4A555F;}
	.st3{fill:#FFD452;}
	.st4{fill:#F58E6F;}
	.st5{fill:#FFFFFF;}
	.st6{fill:none;}
</style>
<g>
	<g>
		<g>
			<g>
				<path class="st2" d="M509.485,379.127c-6.304-13.998-22.324-20.289-36.478-14.324L344.83,418.862
					c-19.939,8.41-37.303,11.988-53.685,10.693c0.424-0.237,0.841-0.486,1.254-0.747c8.03-5.068,12.823-13.761,12.823-23.256
					c0-10.282-5.664-19.624-14.781-24.382l-92.056-48.03h-87.237v104.102h12.374l123.813,53.53
					c15.134,6.542,31.235,9.802,47.321,9.802c17.86-0.001,35.703-4.021,52.164-12.029l149.363-72.67
					C509.915,409.193,515.759,393.052,509.485,379.127z M493.307,409.965l-149.363,72.67c-29.562,14.382-63.825,15.151-94,2.103
					L124.883,430.67h-7.162v-90.956h79.051l90.628,47.285c6.939,3.619,11.249,10.729,11.249,18.553
					c0,7.226-3.648,13.842-9.757,17.698c-5.232,3.302-11.507,4.104-17.302,2.316c-0.375-0.125-0.747-0.251-1.121-0.382
					c-0.59-0.219-1.175-0.467-1.75-0.74l-78.137-37.239l-2.829,5.933l60.82,28.986c6.085,3.593,12.053,6.392,17.894,8.52
					c1.75,0.785,3.55,1.38,5.377,1.783c29.337,8.779,55.21,1.066,75.54-7.508l128.178-54.059c10.827-4.572,23.1,0.249,27.932,10.967
					C508.295,392.49,503.821,404.848,493.307,409.965z"/>
			</g>
		</g>
	</g>
	<g>
		<g>
			<path class="st1" d="M495.954,385.224c-2.212-4.907-6.959-7.803-11.99-7.803c-1.727,0-3.485,0.341-5.187,1.059l-128.178,54.059
				c-21.765,9.18-39.885,12.606-55.031,12.606c-23.795,0-40.24-8.459-51.917-16.347l-59.456-28.194l9.945-20.865l78.137,37.239
				c1.77,0.844,3.629,1.263,5.476,1.263c2.327,0,4.634-0.665,6.724-1.985c3.751-2.366,5.902-6.268,5.902-10.703
				c0-4.732-2.607-9.032-6.803-11.221l-88.832-46.348h-68.342v75.128l-0.623-0.031l0.623,0.27l126.822,53.797
				c13.249,5.729,27.35,8.584,41.432,8.584c15.64,0,31.254-3.519,45.668-10.531l149.363-72.67
				C496.154,399.383,498.906,391.781,495.954,385.224z"/>
		</g>
	</g>
	<g>
		<g>
			<g>
				<path class="st2" d="M0,291.736v187.658h117.721V291.736H0z M111.148,472.821H6.573V298.309h104.575V472.821z"/>
			</g>
		</g>
	</g>
	<g>
		<g>
			<rect x="14.844" y="306.579" class="st3" width="88.035" height="157.972"/>
		</g>
	</g>
	<g>
		<g>
			<g>
				<path class="st2" d="M42.319,317.665c-10.934,0-19.829,8.896-19.829,19.83c0,10.934,8.895,19.829,19.829,19.829
					c10.934,0,19.829-8.895,19.829-19.829C62.147,326.561,53.252,317.665,42.319,317.665z M42.319,350.75
					c-7.309,0-13.255-5.946-13.255-13.255c0-7.309,5.946-13.256,13.255-13.256s13.255,5.947,13.255,13.256
					C55.574,344.803,49.628,350.75,42.319,350.75z"/>
			</g>
		</g>
	</g>
	<g>
		<g>
			<circle class="st3" cx="42.319" cy="337.494" r="4.986"/>
		</g>
	</g>
	<g>
		<g>
			<g>
				<path class="st2" d="M61.197,93.033v190.38h42.068V93.033H61.197z M96.692,276.839H67.771V99.606h28.922V276.839z"/>
			</g>
		</g>
	</g>
	<g>
		<g>
			<rect x="75.438" y="107.274" class="st4" width="13.584" height="161.896"/>
		</g>
	</g>
	<g>
		<g>
			<g>
				<path class="st2" d="M125.812,86.153v238.67h42.066V86.153H125.812z M161.305,318.25h-28.92V92.726h28.92V318.25z"/>
			</g>
		</g>
	</g>
	<g>
		<g>
			<rect x="140.052" y="100.394" class="st4" width="13.584" height="210.187"/>
		</g>
	</g>
	<g>
		<g>
			<g>
				<path class="st2" d="M190.402,134.203v190.62h9.074l33.016,17.232V134.203H190.402z M225.919,331.209L201.09,318.25h-4.115
					V140.776h28.944V331.209z"/>
			</g>
		</g>
	</g>
	<g>
		<g>
			<polygon class="st4" points="204.645,148.444 204.645,311.455 218.251,318.557 218.251,148.444 			"/>
		</g>
	</g>
	<g>
		<g>
			<g>
				<path class="st2" d="M255.017,112.993v240.815l42.09,21.966V112.993H255.017z M290.533,364.93l-28.944-15.106V119.566h28.944
					V364.93z"/>
			</g>
		</g>
	</g>
	<g>
		<g>
			<polygon class="st4" points="269.257,127.234 269.257,345.175 282.866,352.278 282.866,127.234 			"/>
		</g>
	</g>
	<g>
		<g>
			<g>
				<path class="st2" d="M319.631,106.486V418.4l4.279-1.358c1.451-0.46,14.387-4.584,21.865-7.73l15.945-6.717v-296.11H319.631z
					 M355.147,398.232l-11.922,5.023c-4.502,1.893-11.625,4.354-17.021,6.135V113.059h28.944V398.232z"/>
			</g>
		</g>
	</g>
	<g>
		<g>
			<path class="st4" d="M333.872,120.728v277.916c2.366-0.857,4.589-1.703,6.367-2.451l7.239-3.05V120.728H333.872z"/>
		</g>
	</g>
	<g>
		<g>
			<g>
				<path class="st2" d="M384.243,150.964v242.573l42.092-17.761V150.964H384.243z M419.762,371.415l-28.946,12.213V157.537h28.946
					V371.415z"/>
			</g>
		</g>
	</g>
	<g>
		<g>
			<polygon class="st4" points="398.485,165.205 398.485,372.069 412.092,366.327 412.092,165.205 			"/>
		</g>
	</g>
	<g>
		<g>
			<g>
				<path class="st2" d="M448.857,106.486v259.989l23.592-10.1c4.709-1.807,9.836-2.452,14.867-1.926l3.631,0.382V106.486H448.857z
					 M484.374,347.701c-4.908-0.064-9.733,0.794-14.394,2.584l-14.55,6.228V113.059h28.943V347.701z"/>
			</g>
		</g>
	</g>
	<g>
		<g>
			<path class="st4" d="M463.1,120.728v224.16l3.86-1.653l0.387-0.157c3.034-1.163,6.162-1.996,9.359-2.495V120.728H463.1z"/>
		</g>
	</g>
	<g>
		<g>
			<polygon class="st2" points="431.556,93.613 420.56,132.641 389.849,132.641 370.309,77.76 299.926,77.76 294.173,88.989 
				250.797,88.989 235.351,110.872 195.698,110.872 163.006,44.073 123.07,44.073 101.237,73.136 62.964,73.136 19.381,123.82 
				24.367,128.105 65.981,79.709 104.52,79.709 126.353,50.646 158.906,50.646 191.598,117.445 238.757,117.445 254.203,95.562 
				298.191,95.562 303.945,84.333 365.67,84.333 385.21,139.214 425.537,139.214 436.532,100.186 502.739,100.186 502.739,93.613 
							"/>
		</g>
	</g>
	<g>
		<g>
			<rect x="204.644" y="31.959" class="st2" width="247.5" height="6.573"/>
		</g>
	</g>
	<g>
		<g>
			<polygon class="st2" points="418,11.425 414.676,17.095 445.643,35.245 414.676,53.396 418,59.066 458.644,35.245 			"/>
		</g>
	</g>
</g>
</svg>
