<?xml version="1.0" encoding="UTF-8"?>
<!DOCTYPE svg PUBLIC "-//W3C//DTD SVG 1.1//EN" "http://www.w3.org/Graphics/SVG/1.1/DTD/svg11.dtd">
<!-- Creator: CorelDRAW -->
<svg xmlns="http://www.w3.org/2000/svg" xml:space="preserve" width="6.82666in" height="6.82666in" style="shape-rendering:geometricPrecision; text-rendering:geometricPrecision; image-rendering:optimizeQuality; fill-rule:evenodd; clip-rule:evenodd"
viewBox="0 0 6.82666 6.82666"
 xmlns:xlink="http://www.w3.org/1999/xlink">
 <defs>
  <style type="text/css">
   <![CDATA[
    .fil3 {fill:none}
    .fil2 {fill:#424242}
    .fil0 {fill:#424242;fill-rule:nonzero}
    .fil1 {fill:#64B5F6;fill-rule:nonzero}
   ]]>
  </style>
 </defs>
 <g id="Layer_x0020_1">
  <metadata id="CorelCorpID_0Corel-Layer"/>
  <polygon class="fil0" points="0.853327,3.65841 5.78002,3.65841 5.78002,3.92737 0.853327,3.92737 "/>
  <polygon class="fil1" points="5.34576,4.60345 5.51234,4.60345 5.57061,4.70552 5.63819,4.60345 5.79312,4.60345 5.6682,4.77792 5.80206,4.96969 5.63819,4.96969 5.57061,4.85173 5.49091,4.96969 5.33881,4.96969 5.47196,4.77792 "/>
  <polygon class="fil2" points="5.40817,4.35805 5.40817,3.22774 5.97333,3.79289 "/>
  <path class="fil1" d="M4.03898 1.19541l0.14822 0 0.0755827 0.243807 0.0700433 -0.243807 0.138331 0 -0.145276 0.391437c-0.0164803,0.0446181 -0.0334291,0.0747559 -0.0507402,0.0902953 -0.0243661,0.0221339 -0.0614567,0.0332008 -0.111366,0.0332008 -0.020252,0 -0.0514488,-0.00283071 -0.0938268,-0.0083622l-0.0109488 -0.0979449c0.0201299,0.00647638 0.0427283,0.00964961 0.0675709,0.00964961 0.0164803,0 0.0299016,-0.00376378 0.0401457,-0.0112992 0.0102441,-0.00765354 0.0189528,-0.021189 0.0260157,-0.0407323l-0.153752 -0.366244z"/>
  <polygon class="fil0" points="3.45115,1.45904 3.45115,5.65021 3.18219,5.65021 3.18219,1.45904 "/>
  <polygon class="fil2" points="3.88183,1.74161 2.75151,1.74161 3.31667,1.17645 "/>
  <path class="fil1" d="M0.955252 2.54256c0.11287,-0.227402 0.238957,-0.281724 0.37613,-0.213638 0.184425,0.0915472 0.30863,0.51337 0.44372,0.972189 0.154701,0.525433 0.326012,1.10726 0.49035,1.10726 0.164343,0 0.335657,-0.581831 0.490358,-1.10726 0.0863071,-0.293126 0.168169,-0.571138 0.264126,-0.757583l-0.00195276 -0.000964567c0.0856457,-0.172551 0.178902,-0.245425 0.278835,-0.240803 0.0999331,-0.00462205 0.193197,0.068252 0.278843,0.240803l-0.00195669 0.000964567c0.0959606,0.186445 0.177819,0.464457 0.26413,0.757583 0.154701,0.525433 0.326016,1.10726 0.490358,1.10726 0.164339,0 0.33565,-0.581827 0.49035,-1.10726 0.135087,-0.458819 0.259295,-0.880642 0.44372,-0.972189 0.137173,-0.0680866 0.263256,-0.0137638 0.37613,0.213638l-0.240587 0.118717c-0.0282244,-0.0568661 -0.00223622,-0.0990039 -0.0168268,-0.0917638 -0.0788937,0.0391575 -0.18722,0.407067 -0.305043,0.80724 -0.181713,0.617173 -0.382929,1.30057 -0.747744,1.30057 -0.364811,0 -0.566043,-0.683406 -0.747752,-1.30058 -0.0878583,-0.298386 -0.170429,-0.578811 -0.239457,-0.71839l-0.00591339 0.00291732c-0.00649606,-0.0130866 -0.0101142,-0.0253898 -0.0120236,-0.0364921 -0.00901181,-0.0154016 -0.0177559,-0.0279921 -0.0262283,-0.0375354 -0.0084685,0.00954331 -0.0172087,0.0221339 -0.0262205,0.0375354 -0.00190945,0.0111024 -0.00552756,0.0234094 -0.0120236,0.0364921l-0.00591339 -0.00291732c-0.0690276,0.139587 -0.151598,0.420004 -0.239457,0.71839 -0.181713,0.617173 -0.382941,1.30058 -0.747752,1.30058 -0.364815,0 -0.566031,-0.683402 -0.747744,-1.30057 -0.117823,-0.400173 -0.22615,-0.768083 -0.305047,-0.80724 -0.0145866,-0.00724016 0.0114016,0.0348976 -0.0168228,0.0917638l-0.240587 -0.118717z"/>
 </g>
 <rect class="fil3" width="6.82666" height="6.82666"/>
</svg>
